<?xml version="1.0" encoding="utf-8"?>
<!-- Generator: Adobe Illustrator 24.3.0, SVG Export Plug-In . SVG Version: 6.00 Build 0)  -->
<svg version="1.1" id="Sun_1_" xmlns="http://www.w3.org/2000/svg" xmlns:xlink="http://www.w3.org/1999/xlink" x="0px" y="0px"
	 viewBox="0 0 254.97 254.01" style="enable-background:new 0 0 254.97 254.01;" xml:space="preserve">
<style type="text/css">
	.st0{fill:#FFD67B;stroke:#D8892A;stroke-width:8;stroke-miterlimit:10;}
</style>
<circle id="Ball" class="st0" cx="127.21" cy="127.99" r="63.45"/>
<g id="Rays">
	<polygon class="st0" points="190.71,31.56 165.21,44.71 189.35,60.22 	"/>
	<polygon class="st0" points="234.05,81.58 205.49,78.85 217.41,104.95 	"/>
	<polygon class="st0" points="243.47,147.09 220.92,129.35 216.83,157.75 	"/>
	<polygon class="st0" points="215.98,207.29 206.6,180.17 187.81,201.86 	"/>
	<polygon class="st0" points="160.3,243.07 167.07,215.18 139.54,223.27 	"/>
	<polygon class="st0" points="94.12,243.07 114.89,223.27 87.36,215.18 	"/>
	<polygon class="st0" points="38.45,207.29 66.62,201.86 47.83,180.17 	"/>
	<polygon class="st0" points="10.96,147.09 37.59,157.75 33.51,129.35 	"/>
	<polygon class="st0" points="20.38,81.58 37.02,104.95 48.94,78.85 	"/>
	<polygon class="st0" points="63.71,31.56 65.08,60.22 89.22,44.71 	"/>
	<polygon class="st0" points="127.21,12.92 112.87,37.77 141.56,37.77 	"/>
</g>
</svg>
