<?xml version="1.0" encoding="utf-8"?>
<!-- Generator: Adobe Illustrator 24.3.0, SVG Export Plug-In . SVG Version: 6.00 Build 0)  -->
<svg version="1.1" id="Wave" xmlns="http://www.w3.org/2000/svg" xmlns:xlink="http://www.w3.org/1999/xlink" x="0px" y="0px"
	 viewBox="0 0 1920 1080" style="enable-background:new 0 0 1920 1080;" xml:space="preserve">
<style type="text/css">
	.st2{fill:#226C8C;}
	.st3{fill:none;stroke:#03395E;stroke-width:8;stroke-miterlimit:10;}
</style>
<g>
	<path class="st2" d="M-103,747.44c0-39.36,30.66-101.35,68.14-137.76l13.32-12.94c37.48-36.41,98.82-36.42,136.32-0.04l13.41,13.02
		c37.5,36.39,98.83,36.35,136.29-0.07l13.25-12.88c37.46-36.42,98.21-35.86,135,1.24l10.31,10.4
		c36.79,37.11,97.89,38.03,135.78,2.06l15.28-14.51c37.89-35.97,98.99-35.05,135.78,2.06l10.31,10.4
		c36.79,37.11,97.71,37.85,135.39,1.65l14.26-13.7c37.68-36.2,98.97-35.82,136.2,0.84l11.86,11.68
		c37.23,36.66,98.42,36.94,135.97,0.61l13.34-12.9c37.56-36.33,98.64-35.95,135.74,0.85l11.3,11.21
		c37.1,36.79,98.46,37.46,136.35,1.49l14.94-14.19c37.89-35.97,99.18-35.23,136.2,1.64l11.27,11.23
		c37.02,36.88,98.13,37.43,135.81,1.23l14.26-13.7c37.68-36.2,98.68-35.52,135.55,1.5l10.33,10.38
		c36.87,37.02,67.04,99.59,67.04,139.04c0,39.45-42.75,71.73-95,71.73H-8C-60.25,819-103,786.8-103,747.44z"/>
	<path class="st3" d="M-103,747.44c0-39.36,30.66-101.35,68.14-137.76l13.32-12.94c37.48-36.41,98.82-36.42,136.32-0.04l13.41,13.02
		c37.5,36.39,98.83,36.35,136.29-0.07l13.25-12.88c37.46-36.42,98.21-35.86,135,1.24l10.31,10.4
		c36.79,37.11,97.89,38.03,135.78,2.06l15.28-14.51c37.89-35.97,98.99-35.05,135.78,2.06l10.31,10.4
		c36.79,37.11,97.71,37.85,135.39,1.65l14.26-13.7c37.68-36.2,98.97-35.82,136.2,0.84l11.86,11.68
		c37.23,36.66,98.42,36.94,135.97,0.61l13.34-12.9c37.56-36.33,98.64-35.95,135.74,0.85l11.3,11.21
		c37.1,36.79,98.46,37.46,136.35,1.49l14.94-14.19c37.89-35.97,99.18-35.23,136.2,1.64l11.27,11.23
		c37.02,36.88,98.13,37.43,135.81,1.23l14.26-13.7c37.68-36.2,98.68-35.52,135.55,1.5l10.33,10.38
		c36.87,37.02,67.04,99.59,67.04,139.04c0,39.45-42.75,71.73-95,71.73H-8C-60.25,819-103,786.8-103,747.44z"/>
</g>
</svg>
